<svg width="100" height="136" viewBox="0 0 100 136" fill="none" xmlns="http://www.w3.org/2000/svg">
<path d="M36.4106 108.181C36.6209 107.7 37.0716 107.129 37.402 106.889C37.8827 106.589 40.4963 106.499 63.3882 106.499L65.1907 108.301V133.536L63.4483 135.339H37.8527L36.2004 133.897L36.1102 121.459C36.0501 111.906 36.1102 108.842 36.4106 108.181Z" fill="#379936"/>
<path d="M1.50206 108.361C1.50206 108.151 1.86256 107.64 2.2531 107.25L2.9741 106.499H15.832C25.4754 106.529 28.81 106.619 29.1705 106.889C29.4409 107.099 29.8014 107.55 29.9817 107.91C30.252 108.421 30.3422 112.206 30.3722 133.686L28.75 135.339H16.0423C8.14129 135.339 3.06423 135.218 2.70373 135.038C2.37327 134.888 1.92264 134.287 1.71235 133.776C1.41193 132.995 1.32181 130.081 1.38189 120.768C1.41193 114.159 1.47202 108.571 1.50206 108.361Z" fill="#379936"/>
<path d="M70.9587 73.3923L71.7999 72.5211L72.641 71.6499H85.3787C95.5629 71.6499 98.2066 71.74 98.6873 72.0404C99.0177 72.2808 99.4683 72.8516 99.6786 73.3322C99.979 73.9932 100.039 77.0574 99.8889 98.9879L98.0864 100.58L85.4088 100.52C75.8255 100.49 72.5509 100.4 72.1003 100.13C71.7698 99.9192 71.3793 99.4386 71.199 99.0781C71.0188 98.6274 70.8986 93.8808 70.9587 73.3923Z" fill="#379936"/>
<path d="M36.2004 73.0919L37.0415 72.3709L37.8827 71.6499H63.3882L65.1907 73.4524V98.6875L63.5384 100.49L37.7926 100.64L36.0502 98.6875L36.2004 73.0919Z" fill="#379936"/>
<path d="M1.71238 73.0318C1.83255 72.7314 2.28317 72.2808 2.70376 72.0705C3.30459 71.7701 6.18861 71.6799 28.5397 71.6499L30.3422 73.4524V98.9879L29.5912 99.739C29.2006 100.16 28.6298 100.49 28.3294 100.52C28.029 100.55 22.261 100.52 15.4715 100.49C8.68207 100.46 2.91405 100.31 2.64368 100.16C2.34326 100.009 1.98276 99.6188 1.80251 99.2883C1.62225 98.9278 1.50209 93.8508 1.47205 86.1601C1.47205 79.2505 1.56217 73.3623 1.71238 73.0318Z" fill="#379936"/>
<path d="M36.4106 38.4838C36.6209 38.0031 37.1317 37.4323 37.5522 37.222C38.1531 36.8916 40.8268 36.8315 63.6586 36.9516L65.0405 38.3336L65.1306 50.861C65.1907 60.5044 65.1306 63.5987 64.8302 64.2596C64.6199 64.7403 64.0791 65.3111 63.6285 65.5214C62.9375 65.8518 60.354 65.942 37.8527 65.7918L36.2004 64.1395L36.1102 51.7322C36.0501 42.2089 36.1102 39.1447 36.4106 38.4838Z" fill="#379936"/>
<path d="M1.50208 38.4538L2.40333 37.6427L3.30458 36.8015H28.5397L30.3422 38.604V64.1395L28.9002 65.7918H3.00417L1.35187 64.1395L1.50208 38.4538Z" fill="#379936"/>
<path d="M71.199 3.45524C71.3492 3.12478 71.9501 2.64411 72.4908 2.40378C73.302 2.04328 75.4349 1.9832 98.2366 2.10336L99.8889 3.75566L99.9791 16.1629C100.039 25.6862 99.9791 28.7504 99.6787 29.4113C99.4684 29.892 99.0177 30.4628 98.6873 30.7031C98.2066 31.0036 95.593 31.0937 72.7011 31.0937L70.8986 29.2912V16.6736C70.8986 8.86276 71.0188 3.81574 71.199 3.45524Z" fill="#379936"/>
<path d="M36.7411 3.1548C37.0415 2.76425 37.5823 2.37371 37.9428 2.2235C38.3033 2.10333 43.9511 1.98317 50.4702 1.95312C57.7403 1.95312 62.7273 2.07329 63.298 2.25354C63.9289 2.43379 64.4697 2.88442 64.7401 3.45521C65.1306 4.20626 65.1907 6.33923 65.1907 29.2912L63.4483 31.0937H50.7105C40.5264 31.0937 37.8827 31.0035 37.402 30.7031C37.0716 30.4628 36.6209 29.892 36.4106 29.4113C36.1102 28.7504 36.0501 25.6861 36.1102 16.1929C36.2004 4.68693 36.2304 3.75563 36.7411 3.1548Z" fill="#379936"/>
<path d="M8.71212 2.28351C9.79362 1.7728 11.6863 1.17197 12.918 0.961676C14.1497 0.721342 15.9221 0.601175 16.8234 0.6913C17.7247 0.751384 19.3469 1.0518 20.4284 1.35222C21.5099 1.68268 23.1923 2.40368 24.1836 3.00452C25.175 3.57531 26.6471 4.77698 27.4882 5.67824C28.2994 6.54945 29.4109 8.08158 29.9517 9.04292C30.4624 10.0043 31.1233 11.6265 31.3636 12.6179C31.634 13.6093 31.8443 15.3517 31.8443 16.5233C31.8443 17.6649 31.634 19.4073 31.3937 20.3386C31.1533 21.3 30.5225 22.9222 30.0117 23.9436C29.471 24.9951 28.2393 26.6774 27.2179 27.7289C25.9561 29.0507 24.6943 29.982 23.1322 30.7631C21.7503 31.4841 20.0078 32.0549 18.6259 32.2953C17.244 32.5056 15.6217 32.5957 14.4201 32.4755C13.3386 32.3553 11.6562 31.9948 10.6648 31.6343C9.67346 31.3039 8.11128 30.5528 7.21003 29.952C6.30878 29.3812 4.95689 28.2396 4.20585 27.4886C3.45481 26.7075 2.43338 25.2655 1.89263 24.3041C1.38192 23.3128 0.721003 21.7206 0.480669 20.7292C0.210293 19.7378 0 17.9052 0 16.6735C0 15.4418 0.210293 13.6393 0.450627 12.678C0.690961 11.7467 1.32184 10.1244 1.83255 9.07296C2.40334 7.96141 3.57497 6.42928 4.77664 5.22761C6.00836 3.9959 7.4804 2.88435 8.71212 2.28351Z" fill="#C91517"/>
</svg>
